<svg width="100%" height="100%" viewBox="0 0 231 67" version="1.1" xmlns="http://www.w3.org/2000/svg" xmlns:xlink="http://www.w3.org/1999/xlink" xml:space="preserve" style="fill-rule:evenodd;clip-rule:evenodd;stroke-linejoin:round;stroke-miterlimit:2;">
    <path d="M0,63.036l0,-62.415l0.633,-0.621l5.338,0c2.774,0 4.764,0.621 5.971,1.862c1.206,1.241 1.809,3.398 1.809,6.472l0,14.806c3.126,-2.01 6.612,-3.015 10.459,-3.015c5.288,-0 9.27,2.099 11.945,6.295c2.675,4.197 4.013,9.841 4.013,16.934c0,3.369 -0.542,6.442 -1.625,9.22c-1.084,2.778 -2.588,5.172 -4.514,7.182c-1.926,2.009 -4.272,3.561 -7.04,4.654c-2.768,1.094 -5.806,1.64 -9.116,1.64c-6.86,0 -12.818,-1.005 -17.873,-3.014Zm19.993,-31.828c-2.352,0 -4.433,0.975 -6.242,2.925l0,21.633c0.603,0.118 1.252,0.207 1.945,0.266c0.694,0.059 1.432,0.089 2.217,0.089c5.247,0 7.87,-4.463 7.87,-13.388c0,-7.624 -1.93,-11.466 -5.79,-11.525Z" style="fill:#20252d;fill-rule:nonzero;"/>
    <path d="M86.758,58.869c-0.301,1.241 -0.874,2.571 -1.719,3.99c-0.844,1.418 -1.719,2.452 -2.623,3.103c-4.222,-0.119 -7.479,-1.685 -9.771,-4.699c-3.92,3.546 -8.172,5.319 -12.756,5.319c-2.352,0 -4.402,-0.369 -6.151,-1.108c-1.749,-0.739 -3.227,-1.729 -4.433,-2.97c-1.207,-1.241 -2.111,-2.675 -2.714,-4.3c-0.603,-1.625 -0.905,-3.325 -0.905,-5.098c0,-2.541 0.467,-4.773 1.402,-6.694c0.935,-1.92 2.217,-3.516 3.845,-4.787c1.629,-1.271 3.528,-2.231 5.7,-2.881c2.171,-0.651 4.493,-0.976 6.966,-0.976c1.387,0 2.608,0.015 3.664,0.045c1.055,0.029 1.975,0.074 2.759,0.133l0,-1.704c0,-3.77 -1.96,-5.655 -5.881,-5.655c-2.533,0 -6.966,0.975 -13.298,2.926c-1.81,-2.069 -2.956,-5.29 -3.438,-9.664c1.447,-0.532 3.061,-1.034 4.84,-1.507c1.779,-0.473 3.604,-0.887 5.473,-1.241c1.87,-0.355 3.709,-0.636 5.519,-0.843c1.809,-0.207 3.437,-0.31 4.885,-0.31c2.111,0 4.146,0.296 6.106,0.887c1.961,0.591 3.68,1.492 5.157,2.704c1.478,1.211 2.654,2.778 3.528,4.699c0.875,1.921 1.312,4.211 1.312,6.871l0,17.997c0,2.719 0.845,4.64 2.533,5.763Zm-27.321,-6.649c0,2.778 1.628,4.167 4.885,4.167c1.689,-0 3.589,-0.858 5.7,-2.572l0,-7.092c-1.206,-0.059 -2.217,-0.104 -3.031,-0.133c-0.814,-0.03 -1.432,-0.045 -1.854,-0.045c-3.8,-0 -5.7,1.892 -5.7,5.675Z" style="fill:#20252d;fill-rule:nonzero;"/>
    <path d="M93.634,53.372l10.675,-14.008c1.99,-2.6 4.433,-5.378 7.328,-8.334l-0.272,-0.443c-4.463,0.473 -8.202,0.709 -11.218,0.709l-6.966,0c-0.361,-1.418 -0.542,-2.925 -0.542,-4.521c0,-1.596 0.271,-3.517 0.814,-5.763l31.482,0c1.267,3.605 1.9,6.147 1.9,7.625c-0,1.477 -0.452,2.837 -1.357,4.078l-11.127,14.451c-2.835,3.665 -5.097,6.324 -6.785,7.979l0.271,0.444c2.654,-0.355 5.036,-0.532 7.147,-0.532l3.166,0c3.559,0 6.363,-0.503 8.414,-1.508c0.965,2.306 1.447,4.167 1.447,5.586c-0,4.078 -2.503,6.117 -7.508,6.117l-27.322,0c-1.025,-2.837 -1.538,-5.127 -1.538,-6.871c-0,-1.743 0.664,-3.413 1.991,-5.009Z" style="fill:#20252d;fill-rule:nonzero;"/>
    <path d="M173.878,58.869c-0.301,1.241 -0.874,2.571 -1.719,3.99c-0.844,1.418 -1.718,2.452 -2.623,3.103c-4.222,-0.119 -7.479,-1.685 -9.771,-4.699c-3.92,3.546 -8.172,5.319 -12.755,5.319c-2.353,0 -4.403,-0.369 -6.152,-1.108c-1.749,-0.739 -3.227,-1.729 -4.433,-2.97c-1.206,-1.241 -2.111,-2.675 -2.714,-4.3c-0.603,-1.625 -0.905,-3.325 -0.905,-5.098c-0,-2.541 0.468,-4.773 1.402,-6.694c0.935,-1.92 2.217,-3.516 3.845,-4.787c1.629,-1.271 3.528,-2.231 5.7,-2.881c2.171,-0.651 4.493,-0.976 6.966,-0.976c1.387,0 2.608,0.015 3.664,0.045c1.055,0.029 1.975,0.074 2.759,0.133l-0,-1.704c-0,-3.77 -1.96,-5.655 -5.881,-5.655c-2.533,0 -6.966,0.975 -13.298,2.926c-1.81,-2.069 -2.955,-5.29 -3.438,-9.664c1.447,-0.532 3.061,-1.034 4.84,-1.507c1.779,-0.473 3.604,-0.887 5.473,-1.241c1.87,-0.355 3.709,-0.636 5.519,-0.843c1.809,-0.207 3.438,-0.31 4.885,-0.31c2.111,0 4.146,0.296 6.107,0.887c1.96,0.591 3.679,1.492 5.156,2.704c1.478,1.211 2.654,2.778 3.528,4.699c0.875,1.921 1.312,4.211 1.312,6.871l-0,17.997c-0,2.719 0.845,4.64 2.533,5.763Zm-27.321,-6.649c-0,2.778 1.629,4.167 4.885,4.167c1.689,-0 3.589,-0.858 5.7,-2.572l-0,-7.092c-1.206,-0.059 -2.217,-0.104 -3.031,-0.133c-0.814,-0.03 -1.432,-0.045 -1.854,-0.045c-3.8,-0 -5.7,1.892 -5.7,5.675Z" style="fill:#20252d;fill-rule:nonzero;"/>
    <path class="blob" d="M219.671,23.902c6.293,4.046 10.465,11.11 10.465,19.142c-0,12.55 -10.19,22.74 -22.741,22.74c-1.061,0 -2.106,-0.073 -3.128,-0.214l-0,-22.305c-0,-2.801 1.577,-2.306 2.08,-2.132l5.7,1.972c0,0 2.931,-4.685 4.388,-7.796c1.872,-3.996 3.058,-9.729 3.236,-11.407Z" style="fill:#1382f9;"/>
    <path d="M179.216,27.395c0.301,-1.182 0.874,-2.497 1.719,-3.945c0.844,-1.448 1.689,-2.497 2.533,-3.147c5.549,0.413 9.408,3.103 11.58,8.068c2.292,-5.32 6.061,-7.98 11.308,-7.98c1.568,0 3.559,0.237 5.971,0.71c0,1.832 -0.317,4.004 -0.95,6.516c-0.633,2.512 -1.493,4.655 -2.578,6.428c-1.026,-0.355 -2.563,-0.65 -4.614,-0.887c-3.016,0 -5.488,1.507 -7.418,4.522l0,27.572c-1.991,0.355 -4.328,0.532 -7.012,0.532c-2.684,0 -5.051,-0.177 -7.101,-0.532l0,-28.636c0,-4.433 -1.146,-7.507 -3.438,-9.221Z" style="fill:#20252d;fill-rule:nonzero;"/>
</svg>
